<svg width="191" height="80" viewBox="0 0 191 80" fill="none" xmlns="http://www.w3.org/2000/svg">
<g opacity="0.3" clip-path="url(#clip0_28_178)">
<path d="M171.999 41.8107C169.05 41.8107 166.265 42.4691 163.808 43.786C163.972 42.7984 164.136 41.8107 164.136 40.6584C164.136 32.428 157.42 25.679 149.229 25.679C145.789 25.679 142.677 26.8313 140.22 28.642C135.306 16.4609 123.511 7.73663 109.588 7.73663C103.199 7.73663 97.3021 9.54733 92.3879 12.6749C90.586 5.4321 84.1975 0 76.4985 0C68.1443 0 61.4282 6.25514 60.2816 14.1564C58.4797 13.8272 56.514 13.6626 54.5483 13.6626C38.4951 13.6626 25.5543 26.6667 25.5543 42.7984C25.5543 44.2798 25.7181 45.5967 25.8819 46.9136C24.8991 46.4198 23.9162 46.0905 22.7696 46.0905C19.1658 46.0905 16.2172 49.0535 16.0534 52.6749C15.3982 52.5103 14.5792 52.5103 13.7601 52.5103C6.22495 52.5103 0.164062 58.6008 0.164062 66.1728C0.164062 73.7449 6.22495 79.8354 13.7601 79.8354H92.8793C92.8793 79.8354 161.515 79.8354 171.999 79.8354C182.482 79.8354 191 71.2757 191 60.7407C191 50.3704 182.482 41.8107 171.999 41.8107Z" fill="url(#paint0_linear_28_178)"/>
</g>
<defs>
<linearGradient id="paint0_linear_28_178" x1="5.54917" y1="2.18642" x2="59.2598" y2="130.575" gradientUnits="userSpaceOnUse">
<stop stop-color="#35C9E2" stop-opacity="0.5"/>
<stop offset="1" stop-color="#35E6BB"/>
</linearGradient>
<clipPath id="clip0_28_178">
<rect width="191" height="80" fill="white"/>
</clipPath>
</defs>
</svg>
