<svg width="161" height="49" viewBox="0 0 161 49" fill="none" xmlns="http://www.w3.org/2000/svg">
<g opacity="0.3" clip-path="url(#clip0_5_23)">
<path d="M14.2 19.7C18.4 19.7 22.2 21.6 24.8 24.5C25.3 20.2 28.9 16.8 33.4 16.8C36.3 16.8 38.9 18.2 40.4 20.5C42.2 8.9 52.2 0 64.3 0C75.4 0 84.7 7.5 87.5 17.7C89.1 15.7 91.5 14.4 94.3 14.4C98.7 14.4 102.3 17.7 102.8 21.9C105 20.5 107.6 19.7 110.4 19.7C117.6 19.7 123.5 25 124.5 32C125.8 31.3 127.2 30.9 128.7 30.9C133.5 30.9 137.3 34.8 137.3 39.5C137.3 44.3 133.4 48.1 128.7 48.1H14.2C6.4 48.2 0 41.8 0 33.9C0 26.1 6.4 19.7 14.2 19.7Z" fill="url(#paint0_linear_5_23)"/>
<path d="M132.6 6.99995C132.6 6.79995 132.5 6.59995 132.5 6.39995C132.5 4.39995 134.1 2.79995 136.1 2.79995C137.2 2.79995 138.3 3.29995 138.9 4.19995C140.4 2.09995 142.8 0.699951 145.5 0.699951C149.6 0.699951 153 3.69995 153.5 7.69995C154.2 7.29995 155 7.09995 155.9 7.09995C158.6 7.09995 160.8 9.29995 160.8 12C160.8 14.7 158.6 16.9 155.9 16.9H132.4C129.7 16.9 127.5 14.7 127.5 12C127.7 9.19995 129.9 6.99995 132.6 6.99995Z" fill="url(#paint1_linear_5_23)"/>
</g>
<defs>
<linearGradient id="paint0_linear_5_23" x1="3.8744" y1="1.31732" x2="32.2363" y2="82.2737" gradientUnits="userSpaceOnUse">
<stop stop-color="#35C9E2" stop-opacity="0.5"/>
<stop offset="1" stop-color="#35E6BB"/>
</linearGradient>
<linearGradient id="paint1_linear_5_23" x1="128.44" y1="1.14361" x2="140.482" y2="25.897" gradientUnits="userSpaceOnUse">
<stop stop-color="#35C9E2" stop-opacity="0.5"/>
<stop offset="1" stop-color="#35E6BB"/>
</linearGradient>
<clipPath id="clip0_5_23">
<rect width="161" height="48.2" fill="white"/>
</clipPath>
</defs>
</svg>
