<svg width="73" height="36" viewBox="0 0 73 36" fill="none" xmlns="http://www.w3.org/2000/svg">
<path opacity="0.3" d="M11.1802 14C11.1802 13.5556 10.961 13.1111 10.961 12.6667C10.961 8.22222 14.4685 4.66667 18.8529 4.66667C21.2643 4.66667 23.6757 5.77778 24.991 7.77778C28.2793 3.11111 33.5405 0 39.4595 0C48.4474 0 55.9009 6.66667 56.997 15.5556C58.5315 14.6667 60.2853 14.2222 62.2582 14.2222C68.1772 14.2222 73 19.1111 73 25.1111C73 31.1111 68.1772 36 62.2582 36H10.7417C4.82281 36 0 31.1111 0 25.1111C0.438438 18.8889 5.26127 14 11.1802 14Z" fill="url(#paint0_linear_28_188)"/>
<defs>
<linearGradient id="paint0_linear_28_188" x1="2.05995" y1="0.985915" x2="29.0445" y2="55.7046" gradientUnits="userSpaceOnUse">
<stop stop-color="#35C9E2" stop-opacity="0.5"/>
<stop offset="1" stop-color="#35E6BB"/>
</linearGradient>
</defs>
</svg>
