<svg width="32" height="32" viewBox="0 0 32 32" fill="none" xmlns="http://www.w3.org/2000/svg">
<path d="M20.7421 19.1137L20.1355 19.7C20.1355 19.7 18.6915 21.0925 14.7515 17.2903C10.8115 13.4882 12.2555 12.0957 12.2555 12.0957L12.6368 11.7256C13.5795 10.8171 13.6688 9.3573 12.8462 8.29094L11.1662 6.11292C10.1475 4.79291 8.18087 4.61821 7.01421 5.7441L4.92089 7.76294C4.34356 8.322 3.9569 9.04412 4.00356 9.84648C4.12356 11.9003 5.08089 16.3171 10.4195 21.4703C16.0822 26.9342 21.3954 27.1516 23.5674 26.9549C24.2554 26.8927 24.8528 26.5537 25.3341 26.0878L27.2274 24.2605C28.5074 23.0272 28.1474 20.9113 26.5101 20.0481L23.9634 18.7035C22.8888 18.1367 21.5821 18.3036 20.7421 19.1137Z" fill="white"/>
</svg>
